<svg width="1334" height="1244" viewBox="0 0 1334 1244" fill="none" xmlns="http://www.w3.org/2000/svg">
<path d="M1066.83 568.325C1135.86 568.325 1191.83 512.361 1191.83 443.325C1191.83 438.909 1191.58 434.544 1191.13 430.242C1215.53 437.82 1244.6 436.518 1266.39 433.487C1274.79 432.315 1277.72 422.065 1271.53 416.263C1248.44 394.596 1241.26 352.132 1241.26 316.263C1241.26 256.643 1179.01 259.555 1179.01 259.555C1131.29 259.555 1118.75 310.862 1118.42 329.566C1102.68 322.409 1085.25 318.326 1066.83 318.326C997.791 318.326 941.827 374.29 941.827 443.326C941.827 512.362 997.791 568.325 1066.83 568.325ZM1006.26 363.939C1014.66 389.449 1038 425.621 1103.46 425.621C1103.46 425.621 1106.51 485.668 1147.21 502.553C1128.98 527.225 1099.78 543.324 1066.83 543.324C1011.69 543.324 966.826 498.464 966.826 443.324C966.826 410.964 982.349 382.231 1006.26 363.939Z" fill="#C8B6FF"/>
<path d="M1330.85 1104.61L1192.99 693.872C1176.36 644.325 1135.2 606.954 1084.28 595.169L997.175 575.008C960.222 566.456 928.211 543.513 908.243 511.268L731.696 226.201C731.144 233.279 729.592 240.384 726.597 247.237L685.243 341.888L826.803 644.488C847.996 689.791 854.625 740.477 845.813 789.714C833.616 857.886 818.111 961.008 818.111 1044.77C818.111 1142.63 835.189 1201.5 845.141 1227.5C848.813 1237.09 858.131 1243.32 868.396 1243.32H1195.16C1208.78 1243.32 1219.89 1232.42 1220.15 1218.81L1221.54 1147.32L1096.18 840.612C1093.56 834.221 1096.63 826.918 1103.02 824.309C1109.44 821.721 1116.71 824.767 1119.32 831.153L1222.77 1084.25L1222.78 1084L1247.41 1137.67C1257.86 1160.42 1284.87 1170.25 1307.49 1159.53C1328.06 1149.78 1338.1 1126.19 1330.85 1104.61L1330.85 1104.61Z" fill="#C8B6FF"/>
<path d="M671.094 311.752L703.646 237.247C707.474 228.481 707.802 219.059 705.375 210.444C702.609 200.626 696.234 191.866 686.766 186.486C680.526 182.939 673.745 181.256 667.052 181.256C652.959 181.256 639.276 188.725 631.99 201.97L482.816 474.916C449.067 536.671 389.54 579.666 320.59 593.791C255.746 607.072 177.83 640.9 144.763 725.14C85.6322 875.767 27.0082 1033.39 2.38956 1105.45C-5.21457 1127.71 5.89476 1151.96 27.6922 1160.81C33.1349 1163.02 38.7912 1164.08 44.3696 1164.08C59.7816 1164.08 74.6042 1156.01 82.7496 1141.98L149.578 1034.75L246.583 806.901C249.281 800.546 256.624 797.588 262.979 800.296C269.333 803 272.286 810.343 269.583 816.692L179.328 1028.69V1218.32C179.328 1232.13 190.469 1243.32 204.276 1243.32H447.796C461.427 1243.32 472.531 1232.43 472.75 1218.8C474.047 1137.73 480.099 1008.4 483.5 938.864C484.885 910.552 492.229 882.796 505.906 857.968C531.464 811.588 541.146 777.728 525.666 731.28C506.62 674.144 520.843 655.63 520.843 655.63L671.094 311.752Z" fill="#C8B6FF"/>
<path d="M83.4803 490.992C89.9647 490.992 96.0948 489.674 101.907 487.684C101.839 488.799 101.574 489.862 101.574 490.992C101.574 522.508 127.12 548.054 158.636 548.054C175.5 548.054 190.496 540.601 200.943 528.972C223.735 553.149 255.974 568.326 291.823 568.326C360.859 568.326 416.823 512.363 416.823 443.327C416.823 436.681 416.151 430.207 415.156 423.842C440.63 423.233 461.126 402.488 461.126 376.864C461.126 366.619 457.766 357.208 452.214 349.478C460.881 340.937 466.271 329.088 466.271 315.962C466.271 292.67 449.323 273.457 427.115 269.67C428.313 265.066 429.157 260.316 429.157 255.337C429.157 227.348 408.969 204.171 382.386 199.311C382.392 198.956 382.491 198.628 382.491 198.274C382.491 172.269 361.408 151.186 335.403 151.186C316.419 151.186 300.157 162.483 292.709 178.665C285.199 175.029 276.881 172.811 267.975 172.811C257.792 172.811 248.376 175.696 240.1 180.368C231.522 168.774 217.86 161.16 202.329 161.16C180.288 161.16 161.923 176.368 156.799 196.821C130.96 202.269 111.553 225.165 111.553 252.628C111.553 258.654 112.746 264.352 114.475 269.805C85.9591 272.972 63.6991 296.873 63.6991 326.232C63.6991 328.69 64.121 331.034 64.4231 333.414C46.7044 343.096 34.5431 361.679 34.5431 383.294C34.5431 389.315 35.7306 395.008 37.4597 400.455C30.5952 409.877 26.4233 421.377 26.4233 433.925C26.4181 465.441 51.9643 490.992 83.4803 490.992ZM291.827 543.325C264.144 543.325 239.062 532.007 220.936 513.768C244.447 511.132 262.791 491.419 262.791 467.205C262.791 462.674 261.947 458.382 260.755 454.236C278.817 447.653 291.791 430.482 291.791 410.138C291.791 410.018 291.754 409.909 291.754 409.789C316.123 407.992 335.394 387.871 335.394 363.043C335.394 359.549 334.951 356.163 334.227 352.887C346.811 358.814 357.957 367.256 367.014 377.611C376.613 388.585 383.842 401.638 387.935 416.032C390.415 424.725 391.826 433.855 391.826 443.324C391.826 498.464 346.967 543.325 291.827 543.325Z" fill="#C8B6FF"/>
<path d="M671.36 144.312C685.167 144.312 696.36 133.119 696.36 119.312V25C696.36 11.1933 685.168 0 671.36 0C657.553 0 646.36 11.1927 646.36 25V119.312C646.36 133.119 657.553 144.312 671.36 144.312Z" fill="#C8B6FF"/>
<path d="M739.227 177.659C745.623 177.659 752.024 175.216 756.904 170.336L823.592 103.648C833.358 93.8872 833.358 78.0543 823.592 68.293C813.837 58.5274 797.994 58.5274 788.238 68.293L721.55 134.981C711.784 144.741 711.784 160.574 721.55 170.336C726.43 175.216 732.831 177.659 739.227 177.659Z" fill="#C8B6FF"/>
<path d="M582.107 170.339C586.982 175.224 593.388 177.661 599.784 177.661C606.18 177.661 612.581 175.219 617.462 170.339C627.227 160.578 627.227 144.745 617.462 134.984L550.774 68.2959C541.018 58.5303 525.175 58.5303 515.419 68.2959C505.653 78.0563 505.653 93.8892 515.419 103.651L582.107 170.339Z" fill="#C8B6FF"/>
</svg>
