<svg width="90" height="91" viewBox="0 0 90 91" fill="none" xmlns="http://www.w3.org/2000/svg">
<path d="M89.9193 75.9951C88.6593 68.7151 87.3893 61.4251 86.1293 54.1451C85.4893 50.4451 84.8393 46.7451 84.1893 43.0351C83.3693 38.3851 82.5493 33.7351 81.7193 29.0851C81.5493 28.1151 81.0193 27.5251 80.0393 27.2651C78.3893 26.8351 76.7693 26.2951 75.1093 25.8951C73.5093 25.5051 71.9693 24.7251 70.2493 24.8951C69.2393 21.3451 67.5793 18.6651 65.2393 16.9551C63.6493 15.7851 62.0093 15.2551 60.6193 15.0251C60.0293 14.3251 59.3893 13.6951 58.6793 13.1751C54.7993 10.3251 50.5993 11.2151 50.4593 11.2451C50.3093 11.2751 50.1793 11.3151 50.0293 11.3451C49.3193 8.36512 48.1193 6.08511 46.3993 4.54511C43.9293 2.33511 41.3993 2.51512 41.1993 2.53512C40.5993 2.56512 40.0393 2.63512 39.4793 2.74512C39.2593 2.49512 39.0393 2.24511 38.7893 2.02511C36.3193 -0.184885 33.7893 -0.0148849 33.5893 0.0151151C30.4093 0.165115 27.7893 1.37511 25.7993 3.61511C21.5993 8.35511 21.6093 16.2351 21.6893 18.2651L8.28934 20.8251C7.03934 21.0651 6.56934 21.5751 6.40934 22.8251C6.06934 25.3551 5.71933 27.8751 5.37933 30.4051C4.60933 36.2151 3.84933 42.0251 3.06933 47.8251C2.07933 55.3751 1.05933 62.9351 0.0293347 70.4951C-0.150665 71.8151 0.509335 73.1051 1.68933 73.7451C4.03933 75.0051 6.37933 76.2751 8.71933 77.5451C11.2893 78.9351 13.8393 80.3551 16.4293 81.6951C16.9793 81.9851 17.7093 82.2051 18.2993 82.1151C19.8593 81.8651 23.4493 80.9151 25.3393 80.4651C25.3993 80.4951 25.4493 80.5351 25.5093 80.5651C31.4193 83.5551 37.3293 86.5351 43.2293 89.5451C44.1693 90.0251 45.2393 90.1351 46.2593 89.8751C50.1993 88.8551 54.1493 87.8651 58.0893 86.8651C65.8693 84.8951 73.6593 82.9351 81.4393 80.9651C83.5693 80.4251 85.6993 79.8751 87.8193 79.2951C89.4393 78.8651 90.2093 77.6351 89.9193 75.9951ZM73.9093 28.7051L71.1093 29.2651C71.0593 28.8151 71.0093 28.3551 70.9393 27.9251C71.9493 28.1951 72.9393 28.4551 73.9093 28.7051ZM68.1693 29.8551L50.8693 33.3151C50.8293 32.8151 50.7893 32.1351 50.7793 31.3251L67.9293 28.1551C68.0193 28.6951 68.0993 29.2651 68.1693 29.8551ZM63.4793 19.3751C65.2093 20.6451 66.4793 22.6551 67.2993 25.3851L64.5893 25.8451C64.3093 23.2551 63.7793 20.9951 62.9993 19.0551C63.1593 19.1551 63.3193 19.2651 63.4793 19.3751ZM59.0293 17.8851C60.3893 19.9251 61.2693 22.7551 61.6293 26.3451L60.4093 26.5551C60.1693 24.0651 59.7493 22.7751 58.9993 20.8151C58.9693 20.7451 58.2893 19.2551 57.6893 17.9551C57.8393 17.9351 58.3393 17.8651 59.0293 17.8851ZM54.7393 19.2651C55.4293 20.8251 56.2493 23.0851 56.7793 25.8751C57.0693 27.4051 56.8093 27.4251 55.2693 27.7251L50.8693 28.5451C51.1193 25.2451 52.0493 21.3351 54.7393 19.2651ZM51.8793 15.0751C52.2093 15.0051 52.4093 15.0651 52.5793 15.3651C52.7493 15.6751 52.9493 15.9751 53.1293 16.2751C52.4993 16.3951 51.6993 16.5551 50.7293 16.7351C50.7093 16.2451 50.6793 15.7751 50.6393 15.3051L51.8793 15.0751ZM50.5593 19.3251C48.6093 22.2351 47.9593 26.0251 47.7993 29.1151L44.3193 29.7651C44.1793 28.1951 43.9593 24.0151 45.0793 20.3551L50.5593 19.3251ZM47.9093 33.9051L40.9393 35.2951C40.8393 35.3151 40.7293 35.3251 40.6393 35.2951C39.3093 34.8451 37.9793 34.3951 36.6493 33.9351L47.7793 31.8751C47.8093 32.7251 47.8593 33.4251 47.9093 33.9051ZM47.6993 15.8851C47.7293 16.3351 47.7593 16.8151 47.7693 17.3051C47.2993 17.3951 46.8093 17.4851 46.2993 17.5851C46.6893 16.9651 47.1493 16.3851 47.6993 15.8851ZM41.3993 5.52512C41.4593 5.51512 42.9593 5.43512 44.4793 6.83512C45.4593 7.74512 46.5693 9.41512 47.2193 12.4551C46.6093 12.8151 46.0493 13.2251 45.5493 13.6951L43.1193 14.1551C42.9593 10.6651 42.3593 7.77512 41.3093 5.52512C41.3493 5.53512 41.3693 5.53512 41.3993 5.52512ZM43.2893 16.7451C43.0293 17.2551 42.7893 17.7751 42.5893 18.3151C39.3093 18.9451 35.7193 19.6351 32.3093 20.2951C32.2993 19.9251 32.2993 19.4551 32.3193 18.8851L43.2893 16.7451ZM40.1593 14.7351L32.5393 16.1851C32.8893 13.5251 33.7193 10.3251 35.6693 8.12512C36.4293 7.27512 37.2993 6.63512 38.2993 6.20512C39.2293 7.90512 40.0193 10.5751 40.1593 14.7351ZM28.0593 5.59512C29.5093 3.96512 31.3693 3.11511 33.7893 3.00511C33.8393 2.99511 34.9993 2.93512 36.2993 3.85512C35.2293 4.43512 34.2693 5.18512 33.4293 6.13512C30.7293 9.17512 29.7693 13.5151 29.4493 16.7751L24.6893 17.6851C24.6593 15.4351 24.8793 9.17512 28.0593 5.59512ZM9.72933 24.2551C11.4893 24.8351 13.0593 25.3751 14.6493 25.8751C15.0893 26.0151 15.1193 26.2851 15.1193 26.6551C15.1093 31.0351 15.0893 35.4151 15.0893 39.7951C15.0893 48.3551 15.0993 56.9051 15.0993 65.4651C15.0993 66.6051 15.0993 67.7451 15.0993 69.0751C14.4193 67.8051 13.8193 66.6751 13.2193 65.5551C13.1293 65.3951 13.0493 65.2251 12.9593 65.0651C12.3693 64.0951 11.5393 63.8551 10.5593 64.4151L3.91933 68.4051C5.85933 53.6651 7.78933 39.0151 9.72933 24.2551ZM15.0793 77.0851C11.8193 75.3051 8.56933 73.5251 5.20933 71.6951C7.08933 70.5051 8.87934 69.3851 10.7793 68.1851C12.2793 71.1351 13.7693 74.0451 15.2593 76.9451C15.1993 76.9851 15.1393 77.0351 15.0793 77.0851ZM17.6893 23.0851C17.6393 23.0951 17.5993 23.1251 17.5493 23.1351L17.4093 23.0851C16.5293 22.8551 15.6593 22.5451 14.7893 22.2651L29.3093 19.4451C29.2993 20.0651 29.3193 20.5351 29.3293 20.8451C23.0193 22.0651 17.9493 23.0351 17.6893 23.0851ZM25.0993 70.7551C24.8293 72.9151 24.5493 75.0851 24.2893 77.2451C22.6693 77.6351 19.7993 78.3651 18.6493 78.6351C18.6493 78.2551 18.6493 77.9751 18.6493 77.6951C18.6493 70.4751 18.6393 63.2551 18.6393 56.0251C18.6393 47.1751 18.6493 38.3251 18.6193 29.4851L18.6493 26.6251C18.6493 26.3151 18.6493 26.1151 18.6493 25.9051L18.6393 25.2951L41.8093 20.9651C40.9293 24.9551 41.2193 28.9251 41.3693 30.3151L31.6693 32.1151C30.2493 32.3851 29.9493 32.6951 29.7593 34.1051C29.2893 37.6551 28.8193 41.1951 28.3693 44.7451C27.8393 48.8651 27.3093 52.9851 26.7993 57.1051C26.2193 61.6551 25.6693 66.2051 25.0993 70.7551ZM40.4193 84.2651C37.1093 82.5851 33.8093 80.9051 30.3793 79.1651C32.1693 78.0351 33.8493 76.9651 35.6193 75.8451C37.2593 78.6551 38.8793 81.4051 40.4893 84.1651C40.4593 84.2051 40.4393 84.2351 40.4193 84.2651ZM36.8993 72.7051C36.6093 72.2951 36.0593 72.1751 35.6293 72.4151L27.8893 76.6851C29.5693 63.1651 31.2293 49.7651 32.9093 36.2751C34.2993 36.7951 35.5693 37.2651 36.8193 37.7651C36.9593 37.8251 37.0893 38.0651 37.1093 38.2351C37.6693 43.0551 38.2193 47.8751 38.7793 52.6951C39.2493 56.7151 39.7293 60.7351 40.1893 64.7651C40.7193 69.3451 41.2293 73.9151 41.7393 78.4951C41.7793 78.8851 41.8293 79.2651 41.8993 79.7951L36.8993 72.7051ZM85.5893 76.4151C77.6493 78.4251 69.7093 80.4351 61.7693 82.4351C56.6593 83.7251 51.5393 84.9851 46.4193 86.2551C46.3793 86.2651 46.3393 86.2551 46.1693 86.2551C44.3093 70.2051 42.4493 54.1651 40.5793 38.1051C53.2493 35.6151 65.8493 33.1351 78.5293 30.6351C78.8193 32.2551 79.1193 33.8451 79.3993 35.4451C80.8293 43.6451 82.2593 51.8451 83.6793 60.0551C84.5593 65.1551 85.4293 70.2651 86.2993 75.3751C86.4293 76.2051 86.4193 76.2051 85.5893 76.4151Z" fill="#010101"/>
</svg>
